# xmcd
#
# Track frame offsets: 
#        150
#        9586
#        21472
#        37906
#        49655
#        61990
#        75399
#        97059
#        111831
#        130602
#        144700
#        158335
#        170700
#        185273
#        204234
#        215968
#        235766
#        250276
#        264560
#        276570
#        286678
#        302049
#
# Disc length: 4216 seconds
#
# Revision: 3
# Processed by: cddbd v1.5.2PL0 Copyright (c) Steve Scherf et al.
# Submitted via: ExactAudioCopy v0.99pb4
#
DISCID=37107616
DTITLE=Various Artist - Romantic Collection Volume 3
DYEAR=1996
DGENRE=Ballad
TTITLE0=The Beatles - Yesterday
TTITLE1=The Platters - Only You
TTITLE2=Louis Armstrong - Go Down Moses
TTITLE3=Frank Sinatra - Strangers In The Night
TTITLE4=Glen Miller Orchestra - Moonlight Serenade
TTITLE5=The Doors - Spanish Caravan
TTITLE6=Black - Wonderful Life
TTITLE7=The Smoke - I'll Meet You At Midnight
TTITLE8=Garry Moore - Still Got The Blues
TTITLE9=Simon And Garfunkel - El Condor Pasa
TTITLE10=Richard Clavderman - Theme From The Love Story
TTITLE11=Joe Dassin - A Toi
TTITLE12=Kate Bush - Army Dreams
TTITLE13=Julio Iglesias - Mammy Blue
TTITLE14=Paul Mauriat - Love Is Blue
TTITLE15=Boy George - Do You Really Want To Hurt Me
TTITLE16=Lion - Ritchie Lady
TTITLE17=Overkill - Girl You'll Be A Woman Soon...
TTITLE18=Nino Rota - Love Theme Godfather
TTITLE19=Richard Nelson - Love Some Town
TTITLE20=Cretu - Your Favorite Toy
TTITLE21=The Royal Philharmonic Orchestra - Yesterday
EXTD=
EXTT0=
EXTT1=
EXTT2=
EXTT3=
EXTT4=
EXTT5=
EXTT6=
EXTT7=
EXTT8=
EXTT9=
EXTT10=
EXTT11=
EXTT12=
EXTT13=
EXTT14=
EXTT15=
EXTT16=
EXTT17=
EXTT18=
EXTT19=
EXTT20=
EXTT21=
PLAYORDER=
